<?xml version="1.0" encoding="utf-8"?>
<!-- Generator: Adobe Illustrator 19.2.1, SVG Export Plug-In . SVG Version: 6.00 Build 0)  -->
<svg version="1.1" id="layer" xmlns="http://www.w3.org/2000/svg" xmlns:xlink="http://www.w3.org/1999/xlink" x="0px" y="0px"
	 viewBox="0 0 652 652" style="enable-background:new 0 0 652 652;" xml:space="preserve">
<style type="text/css">
	.st0{fill:#F26522;}
</style>
<g>
	<path d="M184.8,331.9c0.6-11.7,3.2-42,14.9-73.8c11.7-31.9,32.3-64.9,68.2-83.5c5.1-2.7,12.4-4.3,20.7-4.3c14,0,30.2,4.6,42.3,13.8
		c12.2,9.3,20.5,22.5,20.6,41.8c0,9.1-1.9,19.6-6.6,31.6c-12.4,22.6-17.6,40.5-17.7,55.8c-0.1,14.2,4.7,25.7,11.3,35
		c2.9,4.1,6.1,7.7,9.4,11.2c20.2,29.3,42.2,47.2,65.6,59.2c14.4,7.4,29.2,12.7,44.4,17.3c-2.3,0.1-4.6,0.2-7,0.2
		c-24.7,0-53.3-5.5-75.5-11.1c-11.1-2.8-20.7-5.6-27.5-7.6c-6.8-2.1-10.6-3.4-10.6-3.4l-16.6-5.8l7.5,15.9
		c14.9,31.9,40.2,48.9,64.1,58.2c4.9,1.9,9.8,3.6,14.6,5c-23.9-0.5-48.6-5.2-67.5-9.9c-10.1-2.5-18.5-5-24.5-6.8
		c-5.9-1.9-9.2-3.1-9.2-3.1l-17.1-6.2l7.9,16.3c7.4,15.2,17.8,26.3,28.7,34.3c-12.3-2.5-22.9-5.7-32.1-9.1
		c-23.5-8.9-37.9-19.8-49.9-29.3c-24.9-20-55-53.4-58.7-136.9C184.7,336.4,184.7,334.7,184.8,331.9 M441.1,406.1
		c26.9,4.1,52.2,4.3,62.8,6.8c13.5,3,30,10.7,43.6,22.5c13.6,11.9,24.2,27.6,27.1,47.1c0.6,4,0.9,8.7,0.9,13.7
		c0.1,17.8-4.6,39.6-16.3,54.2c-1.9-3.4-4.4-7.3-7.7-11.3c-9.2-11-25.6-22.3-50.4-22.7c-5.2-0.1-10.9-0.2-16.9-0.2
		c-11.6,0-24.7,0.2-39.1,0.5h-0.1l-0.2,0c-0.1,0-0.1,0-0.1,0c-0.6,0-23.3,1.1-23.9,1.1c-8.4,0.4-16.3,0.5-23.9,0.5
		c-7.2,0-14-0.2-20.5-0.5c-0.2,0-0.3-0.1-0.5-0.1c-4.6-0.8-17-3.5-30.1-10.5c-8.6-4.6-17.5-10.9-25-19.7
		c21.2,6.1,56.4,14.4,90.8,14.4c14.7,0,29.2-1.5,42.7-5.5l26.2-7.8l-26.6-6.5c-12.9-3.1-34.3-5.2-56.1-13.8
		c-17.1-6.8-34-17.1-46.8-34.8c23.2,6.8,64.2,17.1,100,17.2c15,0,29.1-1.8,41.1-6.8l19.4-8.2l-20.2-5.7
		c-25.8-7.3-49.4-13.5-70.9-24.6c-4-2.1-7.9-4.3-11.8-6.8C419.4,402.2,430.4,404.5,441.1,406.1 M445.2,228
		c0-27.1-7.1-52.5-19.5-74.5l24.2,0l64.5,75.4L438,319.8l-23.5,0C434,294.6,445.2,263.3,445.2,228 M589.1,480.4
		c-3.5-23.7-16.4-42.5-32-56.1c-15.7-13.6-34.1-22.2-50.1-25.8c-13.9-3-37.8-3-63.8-7c-25.8-3.9-52.7-11.7-70.3-28.2
		c-0.1-0.1-0.3-0.3-0.5-0.5c-0.4-0.4-0.7-0.7-0.9-0.8l-2.2-2.2h-0.1c-0.1-0.1-0.1-0.1-0.2-0.2c2.6-1.4,4.8-2.7,6.5-3.8
		c15.7-10.8,29.1-23.8,36.9-33.5l0,56.5l128.1,0.1l0-59l-18.2,0l34.5-39l33.6,39.1l-19.1,0l0,59l128.1,0.1l0-59l-21.8,0l-79.9-90
		l66.3-76.3l30.9,0l0-59.9l-122.6-0.1l0,59.9l11.8,0l-26.8,28.6c0.5-0.5-28.6-28.6-28.6-28.6l13.6,0l0-59.9L419,93.6l0,49.2
		c-27.3-40.1-73.2-66.4-125.3-66.4c-51,0-96.1,25.2-123.6,63.7l0-46.6l-218.9-0.1l0,59.9l27.2,0l-0.1,166.2l-23.6,0l0,59l131.7,0.1
		l0-59l-33.6,0l0-51.8l65.4,0l0-64.5l-65.4,0l0-45.9l49,0l0,26.3l46.6,0c-4.2,13.9-6.5,28.7-6.5,44c0,22.5,4.9,43.9,13.7,63.1
		l0.1-0.1c4.3,9.2,9.4,17.9,15.4,26c-1.3,12.1-1.3,19.8-1.3,20v0.1l0,0.2c3.3,87,37,126.6,64.3,148c12.2,9.7,28.5,22,53.9,31.5
		c21.4,8.1,49.2,14.2,86.8,16c0.6,0.1,1.1,0.1,1.1,0.2l0-0.1c6.6,0.3,13.5,0.5,20.8,0.5c7.8,0,16-0.2,24.5-0.5
		c0.9,0,23.1-1.1,24.2-1.2c0,0,0,0,0.1,0c14.2-0.3,27.2-0.5,38.5-0.5c6,0,11.6,0.1,16.6,0.2c20.6,0.5,32.1,9,39.5,17.5
		c3.6,4.3,6,8.6,7.5,11.7c0.7,1.6,1.2,2.9,1.5,3.7c0.2,0.4,0.2,0.8,0.3,1c0.1,0.2,0.1,0.2,0.1,0.2l3,11.1l8.8-7.3
		c22.3-18.7,28.8-49.2,28.9-72.8C590.2,490.6,589.8,485.2,589.1,480.4"/>
	<path class="st0" d="M296.3,495c-21.7-8.2-35.4-18.3-47.6-27.9c-10.6-8.5-24.1-21-35.1-41.9c-12.1-23.3-18.8-52.2-20.5-88.5
		c0-0.5,0-1.9,0.2-4.3c0.5-11.1,3-40.3,14.4-71.3c13.8-37.4,35.3-63.9,64.1-78.9c4-2.1,10.2-3.3,16.7-3.3c3.5,0,7.1,0.3,10.8,1
		c9.9,1.8,19.3,5.7,26.4,11.1c11.5,8.8,17.2,20.3,17.2,35.1c0,8.4-2,17.8-5.8,28c-12.4,22.7-18.4,42.1-18.4,59.3
		c-0.1,14.4,4.3,27.8,12.9,40c2.7,3.8,5.8,7.5,9.7,11.7c17.3,25,37.3,43.8,61,57.5c-8.1-1.5-16.4-3.4-24.9-5.5
		c-11.3-2.8-21-5.6-27-7.5c-6.5-2-10.3-3.3-10.3-3.3l-16.6-5.8c-0.4-0.2-0.9-0.3-1.3-0.3c-2.9-0.5-5.8,0.5-7.8,2.7
		c-2.3,2.5-2.8,6.2-1.4,9.3l7.5,15.9C329,446,341.3,461,357,472.7c-5.1-1-10.3-2.2-15.5-3.5c-10.2-2.5-18.7-5-23.9-6.7
		c-5.6-1.8-8.8-2.9-8.8-2.9l-17.1-6.2c-0.5-0.2-0.9-0.3-1.4-0.4c-2.9-0.5-5.8,0.5-7.8,2.7c-2.3,2.6-2.9,6.3-1.4,9.4l7.9,16.4
		c2.3,4.8,5,9.5,8.1,13.8C296.8,495.2,296.6,495.1,296.3,495"/>
</g>
</svg>
